<?xml version="1.0" encoding="UTF-8"?><svg id="rdx-short-logo" fill="currentColor" xmlns="http://www.w3.org/2000/svg" viewBox="0 0 416.65 337.16"><path d="M415.57,318.82L280.73,7.89C278.65,3.11,273.93,0,268.71,0h-37.03c-5.23,0-9.96,3.11-12.03,7.91l-61.74,143.02-38.84-24.91c-.3-.19-.61-.38-.93-.54-6.4-3.39-14.33-.95-17.71,5.45L1.52,317.94C.52,319.82,0,321.92,0,324.05c0,7.24,5.86,13.11,13.1,13.11H403.56c.89,0,1.77-.12,2.63-.29h.04c.41-.1,.82-.2,1.22-.33,.04-.01,.08-.03,.13-.04,1.54-.5,2.97-1.28,4.22-2.3,.13-.11,.27-.21,.39-.32,.21-.18,.4-.37,.6-.57,.16-.16,.32-.32,.47-.49,.17-.19,.33-.37,.49-.57,.19-.23,.36-.48,.53-.72,.09-.13,.2-.25,.28-.38,.67-1.04,1.16-2.14,1.5-3.26,.03-.08,.06-.16,.08-.25,.07-.23,.11-.47,.17-.71,.04-.19,.09-.38,.13-.57,.03-.14,.04-.28,.06-.42,.04-.29,.09-.59,.11-.89,0-.03,0-.06,0-.09,.15-2.04-.17-4.14-1.04-6.14Zm-380.71-7.86L116.93,155.77l30.46,19.54-58.56,135.66H34.86Zm82.51-.02l52.37-121.3,189.11,121.3H117.37Zm62.89-145.67L240.3,26.22h19.82l114.32,263.6-194.18-124.55Z"/></svg>